<svg xmlns="http://www.w3.org/2000/svg" viewBox="0 0 32 32" fill="none">
  <!-- Background: slightly warmer dark, softer radius -->
  <rect width="32" height="32" rx="8" fill="#1a1e26"/>
  <!-- Left brace: tighter, more geometric -->
  <path d="M13.5 7.5H12C10.3 7.5 9.5 8.4 9.5 10v3.5c0 .9-.35 1.3-.9 1.5v1c.55.2.9.6.9 1.5V21c0 1.6.8 2.5 2.5 2.5h1.5" stroke="#E07B4F" stroke-width="1.5" stroke-linecap="round" stroke-linejoin="round"/>
  <!-- Right brace -->
  <path d="M18.5 7.5H20c1.7 0 2.5.9 2.5 2.5v3.5c0 .9.35 1.3.9 1.5v1c-.55.2-.9.6-.9 1.5V21c0 1.6-.8 2.5-2.5 2.5h-1.5" stroke="#E07B4F" stroke-width="1.5" stroke-linecap="round" stroke-linejoin="round"/>
  <!-- Center dot: slightly smaller, gold -->
  <circle cx="16" cy="16" r="1.6" fill="#E8C07D"/>
</svg>
